<svg width="30" height="31" viewBox="0 0 30 31" fill="none"
                            xmlns="http://www.w3.org/2000/svg" class="">
                            <path
                                d="M17.3906 22.9062C15.5156 22.9062 14.0156 24.4063 14.0156 26.2812C14.0156 28.1562 15.5156 29.6562 17.3906 29.6562C19.2656 29.6562 20.7656 28.1562 20.7656 26.2812C20.7656 24.4531 19.2187 22.9062 17.3906 22.9062ZM17.3906 27.5937C16.6875 27.5937 16.125 27.0312 16.125 26.3281C16.125 25.625 16.6875 25.0625 17.3906 25.0625C18.0937 25.0625 18.6562 25.625 18.6562 26.3281C18.6562 26.9844 18.0469 27.5937 17.3906 27.5937Z" fill="white" />
                            <path
                                d="M8.48437 22.9062C6.60938 22.9062 5.10938 24.4063 5.10938 26.2812C5.10938 28.1562 6.60938 29.6562 8.48437 29.6562C10.3594 29.6562 11.8594 28.1562 11.8594 26.2812C11.8594 24.4531 10.3125 22.9062 8.48437 22.9062ZM8.48437 27.5937C7.78125 27.5937 7.21875 27.0312 7.21875 26.3281C7.21875 25.625 7.78125 25.0625 8.48437 25.0625C9.1875 25.0625 9.75 25.625 9.75 26.3281C9.75 26.9844 9.1875 27.5937 8.48437 27.5937Z" fill="white" />
                            <path
                                d="M27.2812 1.34375H24.75C23.625 1.34375 22.6406 2.1875 22.5 3.3125L21.75 8.70312H3.23437C2.76562 8.70312 2.29687 8.9375 1.96874 9.3125C1.68749 9.6875 1.54687 10.2031 1.68749 10.6719C1.68749 10.7188 1.68749 10.7188 1.68749 10.7656L4.59374 19.5312C4.78124 20.1875 5.39062 20.6563 6.09374 20.6563H19.0312C20.7656 20.6563 22.2656 19.3438 22.5 17.6094L24.4687 3.59375C24.4687 3.5 24.5625 3.45312 24.6562 3.45312H27.1875C27.75 3.45312 28.2656 2.98438 28.2656 2.375C28.2656 1.76563 27.8437 1.34375 27.2812 1.34375ZM20.4844 17.2812C20.3906 17.9844 19.7812 18.5 19.0781 18.5H6.51562L3.98437 10.8125H21.4219L20.4844 17.2812Z" fill="white" />
                        </svg>