<svg width="30" height="31" viewBox="0 0 30 31" fill="none"
                            xmlns="http://www.w3.org/2000/svg" class="">
                            <path
                                d="M23.0625 16.4375C21.6562 14.75 19.875 13.5781 17.9062 12.9687C19.875 11.9375 21.1875 9.875 21.1875 7.48437C21.1875 4.0625 18.4219 1.25 14.9531 1.25C11.4844 1.25 8.76563 4.10937 8.76563 7.53125C8.76563 9.875 10.0781 11.9375 12.0469 13.0156C10.0781 13.625 8.34375 14.7969 6.89062 16.4844C4.82812 18.9219 3.65625 22.2969 3.60938 26C3.60938 26.4219 3.84375 26.7969 4.17187 26.9375C5.4375 27.5937 10.0313 29.6562 14.9531 29.6562C20.2969 29.6562 24.5625 27.5469 25.7812 26.8906C26.1094 26.7031 26.3438 26.3281 26.3438 25.9531C26.2969 22.2969 25.125 18.9219 23.0625 16.4375ZM15 3.45312C17.25 3.45312 19.125 5.28125 19.125 7.57812C19.125 9.875 17.2969 11.7031 15 11.7031C12.7031 11.7031 10.875 9.875 10.875 7.57812C10.875 5.28125 12.75 3.45312 15 3.45312ZM15 27.5937C11.1094 27.5937 7.3125 26.0937 5.76563 25.3437C5.95313 22.3906 6.89063 19.7656 8.53125 17.7969C10.2188 15.7813 12.5156 14.6562 15 14.6562C17.4844 14.6562 19.7812 15.7813 21.4687 17.7969C23.1094 19.7188 24.0937 22.3906 24.2344 25.3437C22.7813 26.0937 19.2187 27.5937 15 27.5937Z" fill="white"/>
                        </svg>