<svg width="30" height="31" viewBox="0 0 30 31" fill="none"
                            xmlns="http://www.w3.org/2000/svg" class="bg-white">
                            <path
                                d="M18.5156 14.4688H11.4844C9.1875 14.4688 7.26562 12.6875 7.26562 10.4844C7.26562 8.28125 9.14062 6.5 11.4844 6.5H21.8438C22.4063 6.5 22.875 6.03125 22.875 5.46875C22.875 4.90625 22.4063 4.4375 21.8438 4.4375H16.9688V2.375C16.9688 1.8125 16.5 1.34375 15.9375 1.34375C15.375 1.34375 14.9062 1.8125 14.9062 2.375V4.34375H11.5313C8.0625 4.34375 5.20312 7.0625 5.20312 10.4375C5.20312 13.8125 8.01563 16.5313 11.5313 16.5313H18.5625C20.8594 16.5313 22.7813 18.3125 22.7813 20.5156C22.7813 22.7188 20.9062 24.5 18.5625 24.5H6.65625C6.09375 24.5 5.625 24.9688 5.625 25.5313C5.625 26.0938 6.09375 26.5625 6.65625 26.5625H14.8594V28.625C14.8594 29.1875 15.3281 29.6563 15.8906 29.6563C16.4531 29.6563 16.9219 29.1875 16.9219 28.625V26.6563H18.4219C21.8906 26.6563 24.75 23.9375 24.75 20.5625C24.75 17.1875 21.9844 14.4688 18.5156 14.4688Z" fill="white" />
                        </svg>