 <svg
              width="20"
              height="20"
              viewBox="0 0 24 24"
              fill="none"
              xmlns="http://www.w3.org/2000/svg"
            >
              <path
                d="M22.5 11.175H1.5C1.05 11.175 0.637497 11.55 0.637497 12.0375C0.637497 12.4875 1.0125 12.9 1.5 12.9H22.5C22.95 12.9 23.3625 12.525 23.3625 12.0375C23.3625 11.55 22.95 11.175 22.5 11.175Z"
                fill="currentColor"
              />
              <path
                d="M22.5 17.55H1.5C1.05 17.55 0.637497 17.925 0.637497 18.4125C0.637497 18.9 1.0125 19.275 1.5 19.275H22.5C22.95 19.275 23.3625 18.9 23.3625 18.4125C23.3625 17.925 22.95 17.55 22.5 17.55Z"
                fill="currentColor"
              />
              <path
                d="M1.5 6.44998H22.5C22.95 6.44998 23.3625 6.07498 23.3625 5.58748C23.3625 5.09998 22.9875 4.72498 22.5 4.72498H1.5C1.05 4.72498 0.637497 5.09998 0.637497 5.58748C0.637497 6.07498 1.05 6.44998 1.5 6.44998Z"
                fill="currentColor"
              />
            </svg>